<svg width="30" height="30" viewBox="0 0 30 30" fill="none" xmlns="http://www.w3.org/2000/svg">
<circle cx="15" cy="15" r="15" fill="#7B98AB"/>
<path d="M9 15C9 14.5858 9.33579 14.25 9.75 14.25H15H20.25C20.6642 14.25 21 14.5858 21 15V15C21 15.4142 20.6642 15.75 20.25 15.75H15H9.75C9.33579 15.75 9 15.4142 9 15V15Z" fill="#D9D9D9"/>
<path d="M15 21C14.5858 21 14.25 20.6642 14.25 20.25L14.25 15L14.25 9.75C14.25 9.33579 14.5858 9 15 9V9C15.4142 9 15.75 9.33579 15.75 9.75L15.75 15L15.75 20.25C15.75 20.6642 15.4142 21 15 21V21Z" fill="#D9D9D9"/>
</svg>
