<svg width="16" height="16" viewBox="0 0 16 16" fill="none" xmlns="http://www.w3.org/2000/svg">
<path fill-rule="evenodd" clip-rule="evenodd" d="M4.20006 0.310256C5.23902 0.07936 6.49944 0 8 0C9.50056 0 10.761 0.07936 11.7999 0.310256C12.848 0.543176 13.719 0.9408 14.3891 1.61086C15.0592 2.28093 15.4568 3.15202 15.6898 4.20006C15.9206 5.23902 16 6.49944 16 8C16 9.50056 15.9206 10.761 15.6898 11.7999C15.4568 12.848 15.0592 13.719 14.3891 14.3891C13.719 15.0592 12.848 15.4568 11.7999 15.6898C10.761 15.9206 9.50056 16 8 16C6.49944 16 5.23902 15.9206 4.20006 15.6898C3.15202 15.4568 2.28093 15.0592 1.61086 14.3891C0.9408 13.719 0.543176 12.848 0.310256 11.7999C0.07936 10.761 0 9.50056 0 8C0 6.49944 0.07936 5.23902 0.310256 4.20006C0.543176 3.15202 0.9408 2.28093 1.61086 1.61086C2.28093 0.9408 3.15202 0.543176 4.20006 0.310256ZM9.36568 5.03431C9.67808 5.34674 9.67808 5.85326 9.36568 6.16569L7.53136 8L9.36568 9.83432C9.67808 10.1467 9.67808 10.6533 9.36568 10.9657C9.05328 11.2781 8.54672 11.2781 8.23432 10.9657L6.04432 8.77568C5.61592 8.34728 5.61592 7.65272 6.04433 7.22432L8.23432 5.03431C8.54672 4.7219 9.05328 4.7219 9.36568 5.03431Z" fill="#ACBFCA"/>
</svg>
