<svg width="13" height="18" viewBox="0 0 13 18" fill="none" xmlns="http://www.w3.org/2000/svg">
<circle cx="6.36401" cy="8.7627" r="6.36401" fill="#ACBFCA"/>
<path d="M2.82484 12.2235C2.53029 11.929 2.53029 11.4514 2.82484 11.1568L5.79154 8.19016L8.75823 5.22347C9.05279 4.92891 9.53035 4.92891 9.82491 5.22347V5.22347C10.1195 5.51802 10.1195 5.99559 9.82491 6.29014L6.85821 9.25683L3.89152 12.2235C3.59696 12.5181 3.1194 12.5181 2.82484 12.2235V12.2235Z" fill="#F3F7F9"/>
<path d="M9.82728 12.1571C9.53273 12.4516 9.05516 12.4516 8.76061 12.1571L5.79391 9.1904L2.82722 6.22371C2.53266 5.92916 2.53266 5.45159 2.82722 5.15704V5.15704C3.12177 4.86248 3.59934 4.86248 3.89389 5.15704L6.86059 8.12373L9.82728 11.0904C10.1218 11.385 10.1218 11.8625 9.82728 12.1571V12.1571Z" fill="#F3F7F9"/>
</svg>
