<svg xmlns="http://www.w3.org/2000/svg"  viewBox="0 0 48 48" width="48px" height="48px"><path d="M 27.484375 3.984375 A 1.50015 1.50015 0 0 0 27.279297 4 L 17.212891 4 A 1.50015 1.50015 0 1 0 17.212891 7 L 26 7 L 26 13.5 C 26 15.967501 28.032499 18 30.5 18 L 37 18 L 37 39.5 C 37 40.346499 36.346499 41 35.5 41 L 33.648438 41 A 1.50015 1.50015 0 1 0 33.648438 44 L 35.5 44 C 37.967501 44 40 41.967501 40 39.5 L 40 16.5 A 1.50015 1.50015 0 0 0 38.5 15 L 30.5 15 C 29.653501 15 29 14.346499 29 13.5 L 29 9.1210938 L 33.34375 13.464844 A 1.50015 1.50015 0 1 0 35.464844 11.34375 L 28.560547 4.4394531 A 1.50015 1.50015 0 0 0 28.552734 4.4316406 A 1.50015 1.50015 0 0 0 28.544922 4.4238281 A 1.50015 1.50015 0 0 0 28.521484 4.4042969 A 1.50015 1.50015 0 0 0 28.431641 4.3242188 A 1.50015 1.50015 0 0 0 27.484375 3.984375 z M 12.5 4 C 10.032499 4 8 6.0324991 8 8.5 L 8 39.5 C 8 41.967501 10.032499 44 12.5 44 L 28.660156 44 A 1.50015 1.50015 0 1 0 28.660156 41 L 12.5 41 C 11.653501 41 11 40.346499 11 39.5 L 11 8.5 C 11 7.6535009 11.653501 7 12.5 7 A 1.50015 1.50015 0 1 0 12.5 4 z M 17.5 22 A 1.50015 1.50015 0 1 0 17.5 25 L 30.5 25 A 1.50015 1.50015 0 1 0 30.5 22 L 17.5 22 z M 17.5 28 A 1.50015 1.50015 0 1 0 17.5 31 L 30.5 31 A 1.50015 1.50015 0 1 0 30.5 28 L 17.5 28 z M 17.5 34 A 1.50015 1.50015 0 1 0 17.5 37 L 26.5 37 A 1.50015 1.50015 0 1 0 26.5 34 L 17.5 34 z"/></svg>