<svg width="22" height="22" viewBox="0 0 22 22" fill="none" xmlns="http://www.w3.org/2000/svg">
<g clip-path="url(#clip0_1716_4891)">
<path d="M16.2043 1.25367C15.9175 0.966857 15.9175 0.501863 16.2043 0.215056C16.4912 -0.0716852 16.9561 -0.0716852 17.2429 0.215056L20.0862 3.05823C20.373 3.34504 20.373 3.81003 20.0862 4.09684C19.9428 4.24018 19.7549 4.31195 19.5669 4.31195C19.379 4.31195 19.1911 4.24024 19.0477 4.09684L16.2043 1.25367ZM20.4424 20.5313H1.5586C1.15302 20.5313 0.824219 20.8601 0.824219 21.2656C0.824219 21.6712 1.15302 22 1.5586 22H20.4424C20.8479 22 21.1767 21.6712 21.1767 21.2656C21.1767 20.8601 20.848 20.5313 20.4424 20.5313ZM1.9149 18.3865C1.73024 18.2018 1.65754 17.9331 1.7239 17.6806L2.73707 13.824C2.77018 13.6981 2.83608 13.5833 2.92808 13.4913L14.2126 2.20662C14.4994 1.91988 14.9643 1.91988 15.2511 2.20662L18.0946 5.04993C18.2323 5.18766 18.3097 5.37439 18.3097 5.5692C18.3097 5.76394 18.2323 5.95074 18.0946 6.08847L6.80999 17.373C6.718 17.465 6.60317 17.5309 6.47739 17.564L2.62084 18.5774C2.55915 18.5936 2.4964 18.6015 2.43424 18.6015C2.2419 18.6015 2.05437 18.526 1.9149 18.3865ZM3.46404 16.8373L5.91192 16.194L16.5368 5.5692L14.7319 3.7645L4.10715 14.3894L3.46404 16.8373Z" fill="#7B98AB"/>
</g>
<defs>
<clipPath id="clip0_1716_4891">
<rect width="22" height="22" fill="white"/>
</clipPath>
</defs>
</svg>
