<svg width="22" height="17" viewBox="0 0 22 17" fill="none" xmlns="http://www.w3.org/2000/svg">
<path d="M22 7.75412C22 8.30776 21.7656 8.73222 21.2967 9.0275L11.8721 15.2007C11.6283 15.3667 11.3657 15.459 11.0844 15.4775C10.8031 15.4959 10.5311 15.4313 10.2685 15.2837C10.006 15.1361 9.79966 14.9423 9.64962 14.7024C9.49957 14.4625 9.42455 14.2041 9.42455 13.9273V10.8269C7.39898 10.8269 5.57971 11.399 3.96675 12.5432C2.35379 13.6874 1.2191 15.173 0.56266 17C0.187553 15.9665 4.57364e-07 14.9423 4.57364e-07 13.9273C4.57364e-07 12.2479 0.421994 10.6977 1.26598 9.27664C2.10997 7.85562 3.25405 6.72987 4.69821 5.8994C6.14237 5.06893 7.71782 4.6537 9.42455 4.6537V1.55328C9.42455 1.27646 9.49957 1.01809 9.64962 0.77818C9.79966 0.538267 10.006 0.344491 10.2685 0.196852C10.5311 0.0492129 10.8031 -0.015379 11.0844 0.00307581C11.3657 0.0215307 11.6283 0.113805 11.8721 0.279898L21.2967 6.45305C21.7656 6.74833 22 7.18202 22 7.75412Z" fill="black" fill-opacity="0.8"/>
</svg>
