<svg width="18" height="18" viewBox="0 0 18 18" fill="none" xmlns="http://www.w3.org/2000/svg">
<g clip-path="url(#clip0_917_5147)">
<path fill-rule="evenodd" clip-rule="evenodd" d="M9 5.25C9.41422 5.25 9.75 5.58579 9.75 6C9.75 6.41422 9.41422 6.75 9 6.75C8.58578 6.75 8.25 6.41422 8.25 6C8.25 5.58579 8.58578 5.25 9 5.25ZM9.75 12C9.75 12.4142 9.41422 12.75 9 12.75C8.58578 12.75 8.25 12.4142 8.25 12V8.25C8.25 7.83578 8.58578 7.5 9 7.5C9.41422 7.5 9.75 7.83578 9.75 8.25V12ZM18 9C18 13.9705 13.9705 18 9 18C4.02944 18 0 13.9705 0 9C0 4.02944 4.02944 0 9 0C13.9705 0 18 4.02944 18 9ZM9 1.5C4.85786 1.5 1.5 4.85786 1.5 9C1.5 13.1421 4.85786 16.5 9 16.5C13.1421 16.5 16.5 13.1421 16.5 9C16.5 4.85786 13.1421 1.5 9 1.5Z" fill="black" fill-opacity="0.8"/>
</g>
<defs>
<clipPath id="clip0_917_5147">
<rect width="18" height="18" fill="white"/>
</clipPath>
</defs>
</svg>
