<svg width="18" height="18" viewBox="0 0 18 18" fill="none" xmlns="http://www.w3.org/2000/svg">
<path fill-rule="evenodd" clip-rule="evenodd" d="M15.3 1.8H2.7C2.20294 1.8 1.8 2.20295 1.8 2.7V15.3C1.8 15.7971 2.20295 16.2 2.7 16.2H15.3C15.7971 16.2 16.2 15.7971 16.2 15.3V2.7C16.2 2.20294 15.7971 1.8 15.3 1.8ZM2.7 0C1.20883 0 0 1.20883 0 2.7V15.3C0 16.7912 1.20883 18 2.7 18H15.3C16.7912 18 18 16.7912 18 15.3V2.7C18 1.20883 16.7912 0 15.3 0H2.7Z" fill="black" fill-opacity="0.8"/>
<path d="M8.09961 4.5H9.89961V13.5H8.09961V4.5Z" fill="black" fill-opacity="0.8"/>
<path d="M11.6992 9.90002H13.4992V13.5H11.6992V9.90002Z" fill="black" fill-opacity="0.8"/>
<path d="M4.5 7.20001H6.3V13.5H4.5V7.20001Z" fill="black" fill-opacity="0.8"/>
</svg>
